{"accessors" : [{"bufferView" : 0, "byteOffset" : 0, "componentType" : 5123, "count" : 966, "type" : "SCALAR", "max" : [843], "min" : [0]}, {"bufferView" : 1, "byteOffset" : 0, "componentType" : 5126, "count" : 844, "type" : "VEC3", "max" : [0.04748045280575752, 0.03414960205554962, 0.10931931436061859], "min" : [-0.08981300890445709, -0.03879685699939728, -0.10493618249893188], "name" : "POSITION"}, {"bufferView" : 1, "byteOffset" : 12, "componentType" : 5126, "count" : 844, "type" : "VEC3", "max" : [0.982168972492218, 0.9987758994102478, 0.980370819568634], "min" : [-0.9964509010314941, -0.9968681931495667, -0.9861665964126587], "name" : "NORMAL"}], "asset" : {"generator" : "Aspose.3D 23.6.0", "version" : "2.0"}, "buffers" : [{"uri" : "data:application/octet-stream;base64,", "byteLength" : 25124}], "bufferViews" : [{"buffer" : 0, "byteOffset" : 0, "byteLength" : 1932, "target" : 34963}, {"buffer" : 0, "byteOffset" : 1936, "byteLength" : 23184, "byteStride" : 24, "target" : 34962}], "materials" : [{"name" : "Material", "pbrMetallicRoughness" : {"baseColorFactor" : [1, 1, 1, 1], "metallicFactor" : 0.20000000298023224, "roughnessFactor" : 0.8500000238418579}, "emissiveFactor" : [0, 0, 0], "alphaMode" : "OPAQUE", "doubleSided" : true}], "meshes" : [{"primitives" : [{"attributes" : {"POSITION" : 1, "NORMAL" : 2}, "indices" : 0, "material" : 0, "mode" : 4}]}], "nodes" : [{"mesh" : 0, "name" : "handRLow"}, {"children" : [0], "name" : "Armature"}], "scene" : 0, "scenes" : [{"nodes" : [1]}]}